<?xml version="1.0" encoding="utf-8" standalone="no"?>
<!DOCTYPE svg PUBLIC "-//W3C//DTD SVG 1.1//EN"
  "http://www.w3.org/Graphics/SVG/1.1/DTD/svg11.dtd">
<svg height="345.6pt" version="1.1" viewBox="0 0 460.8 345.6" width="460.8pt" xmlns="http://www.w3.org/2000/svg" xmlns:xlink="http://www.w3.org/1999/xlink">
 <metadata>
  <rdf:RDF xmlns:cc="http://creativecommons.org/ns#" xmlns:dc="http://purl.org/dc/elements/1.1/" xmlns:rdf="http://www.w3.org/1999/02/22-rdf-syntax-ns#">
   <cc:Work>
    <dc:type rdf:resource="http://purl.org/dc/dcmitype/StillImage"/>
    <dc:date>2023-06-12T23:04:37.049937</dc:date>
    <dc:format>image/svg+xml</dc:format>
    <dc:creator>
     <cc:Agent>
      <dc:title>Matplotlib v3.4.3, https://matplotlib.org/</dc:title>
     </cc:Agent>
    </dc:creator>
   </cc:Work>
  </rdf:RDF>
 </metadata>
 <defs>
  <style type="text/css">*{stroke-linecap:butt;stroke-linejoin:round;}</style>
 </defs>
 <g id="figure_1">
  <g id="patch_1">
   <path d="M 0 345.6 
L 460.8 345.6 
L 460.8 0 
L 0 0 
z
" style="fill:#ffffff;"/>
  </g>
  <g id="axes_1">
   <g id="patch_2">
    <path clip-path="url(#pec36ba7e9a)" d="M 381.759972 171.591654 
Q 346.837677 119.546172 312.538335 68.429091 
" style="fill:none;stroke:#ff0000;stroke-linecap:round;"/>
    <path clip-path="url(#pec36ba7e9a)" d="M 313.106306 72.865014 
L 312.538335 68.429091 
L 316.427856 70.636268 
L 313.106306 72.865014 
z
" style="fill:#ff0000;stroke:#ff0000;stroke-linecap:round;"/>
   </g>
   <g id="patch_3">
    <path clip-path="url(#pec36ba7e9a)" d="M 380.565423 172.955797 
Q 273.053238 119.546524 166.542343 66.634665 
" style="fill:none;stroke:#ff0000;stroke-linecap:round;"/>
    <path clip-path="url(#pec36ba7e9a)" d="M 169.23486 70.205428 
L 166.542343 66.634665 
L 171.014464 66.623109 
L 169.23486 70.205428 
z
" style="fill:#ff0000;stroke:#ff0000;stroke-linecap:round;"/>
   </g>
   <g id="patch_4">
    <path clip-path="url(#pec36ba7e9a)" d="M 306.780294 66.136567 
Q 199.268117 119.545849 92.757227 172.457717 
" style="fill:none;stroke:#ff0000;stroke-linecap:round;"/>
    <path clip-path="url(#pec36ba7e9a)" d="M 97.229348 172.469272 
L 92.757227 172.457717 
L 95.449744 168.886953 
L 97.229348 172.469272 
z
" style="fill:#ff0000;stroke:#ff0000;stroke-linecap:round;"/>
   </g>
   <g id="patch_5">
    <path clip-path="url(#pec36ba7e9a)" d="M 160.404592 67.500717 
Q 125.482303 119.546201 91.182967 170.663283 
" style="fill:none;stroke:#ff0000;stroke-linecap:round;"/>
    <path clip-path="url(#pec36ba7e9a)" d="M 95.072488 168.456106 
L 91.182967 170.663283 
L 91.750938 166.227361 
L 95.072488 168.456106 
z
" style="fill:#ff0000;stroke:#ff0000;stroke-linecap:round;"/>
   </g>
   <g id="patch_6">
    <path clip-path="url(#pec36ba7e9a)" d="M 162.374868 68.098054 
Q 162.374878 174.526675 162.374889 279.837263 
" style="fill:none;stroke:#ff0000;stroke-linecap:round;"/>
    <path clip-path="url(#pec36ba7e9a)" d="M 164.374888 275.837263 
L 162.374889 279.837263 
L 160.374888 275.837263 
L 164.374888 275.837263 
z
" style="fill:#ff0000;stroke:#ff0000;stroke-linecap:round;"/>
   </g>
   <g id="patch_7">
    <path clip-path="url(#pec36ba7e9a)" d="M 164.345143 67.500717 
Q 236.159812 174.52774 307.351528 280.626361 
" style="fill:none;stroke:#ff0000;stroke-linecap:round;"/>
    <path clip-path="url(#pec36ba7e9a)" d="M 306.783557 276.190439 
L 307.351528 280.626361 
L 303.462008 278.419184 
L 306.783557 276.190439 
z
" style="fill:#ff0000;stroke:#ff0000;stroke-linecap:round;"/>
   </g>
   <g id="patch_8">
    <path clip-path="url(#pec36ba7e9a)" d="M 90.560028 177.464357 
Q 125.482327 229.509834 159.781673 280.626909 
" style="fill:none;stroke:#ff0000;stroke-linecap:round;"/>
    <path clip-path="url(#pec36ba7e9a)" d="M 159.213702 276.190987 
L 159.781673 280.626909 
L 155.892153 278.419733 
L 159.213702 276.190987 
z
" style="fill:#ff0000;stroke:#ff0000;stroke-linecap:round;"/>
   </g>
   <g id="patch_9">
    <path clip-path="url(#pec36ba7e9a)" d="M 91.754577 176.100214 
Q 199.266751 229.509486 305.777636 282.421342 
" style="fill:none;stroke:#ff0000;stroke-linecap:round;"/>
    <path clip-path="url(#pec36ba7e9a)" d="M 303.085118 278.850579 
L 305.777636 282.421342 
L 301.305515 282.432898 
L 303.085118 278.850579 
z
" style="fill:#ff0000;stroke:#ff0000;stroke-linecap:round;"/>
   </g>
   <g id="PathCollection_1">
    <defs>
     <path d="M 0 3.535534 
C 0.937635 3.535534 1.836992 3.163008 2.5 2.5 
C 3.163008 1.836992 3.535534 0.937635 3.535534 0 
C 3.535534 -0.937635 3.163008 -1.836992 2.5 -2.5 
C 1.836992 -3.163008 0.937635 -3.535534 0 -3.535534 
C -0.937635 -3.535534 -1.836992 -3.163008 -2.5 -2.5 
C -3.163008 -1.836992 -3.535534 -0.937635 -3.535534 0 
C -3.535534 0.937635 -3.163008 1.836992 -2.5 2.5 
C -1.836992 3.163008 -0.937635 3.535534 0 3.535534 
z
" id="maa499f7c5f" style="stroke:#1f78b4;"/>
    </defs>
    <g clip-path="url(#pec36ba7e9a)">
     <use style="fill:#1f78b4;stroke:#1f78b4;" x="383.730248" xlink:href="#maa499f7c5f" y="174.528"/>
     <use style="fill:#1f78b4;stroke:#1f78b4;" x="309.94512" xlink:href="#maa499f7c5f" y="64.564364"/>
     <use style="fill:#1f78b4;stroke:#1f78b4;" x="162.374867" xlink:href="#maa499f7c5f" y="64.564371"/>
     <use style="fill:#1f78b4;stroke:#1f78b4;" x="88.589752" xlink:href="#maa499f7c5f" y="174.528011"/>
     <use style="fill:#1f78b4;stroke:#1f78b4;" x="162.374889" xlink:href="#maa499f7c5f" y="284.491636"/>
     <use style="fill:#1f78b4;stroke:#1f78b4;" x="309.945111" xlink:href="#maa499f7c5f" y="284.491636"/>
    </g>
   </g>
   <g id="text_1">
    <g clip-path="url(#pec36ba7e9a)">
     <!-- year1_norace_mean -->
     <g transform="translate(368.523295 175.272375)scale(0.03 -0.03)">
      <defs>
       <path d="M 2059 -325 
Q 1816 -950 1584 -1140 
Q 1353 -1331 966 -1331 
L 506 -1331 
L 506 -850 
L 844 -850 
Q 1081 -850 1212 -737 
Q 1344 -625 1503 -206 
L 1606 56 
L 191 3500 
L 800 3500 
L 1894 763 
L 2988 3500 
L 3597 3500 
L 2059 -325 
z
" id="DejaVuSans-79" transform="scale(0.015625)"/>
       <path d="M 3597 1894 
L 3597 1613 
L 953 1613 
Q 991 1019 1311 708 
Q 1631 397 2203 397 
Q 2534 397 2845 478 
Q 3156 559 3463 722 
L 3463 178 
Q 3153 47 2828 -22 
Q 2503 -91 2169 -91 
Q 1331 -91 842 396 
Q 353 884 353 1716 
Q 353 2575 817 3079 
Q 1281 3584 2069 3584 
Q 2775 3584 3186 3129 
Q 3597 2675 3597 1894 
z
M 3022 2063 
Q 3016 2534 2758 2815 
Q 2500 3097 2075 3097 
Q 1594 3097 1305 2825 
Q 1016 2553 972 2059 
L 3022 2063 
z
" id="DejaVuSans-65" transform="scale(0.015625)"/>
       <path d="M 2194 1759 
Q 1497 1759 1228 1600 
Q 959 1441 959 1056 
Q 959 750 1161 570 
Q 1363 391 1709 391 
Q 2188 391 2477 730 
Q 2766 1069 2766 1631 
L 2766 1759 
L 2194 1759 
z
M 3341 1997 
L 3341 0 
L 2766 0 
L 2766 531 
Q 2569 213 2275 61 
Q 1981 -91 1556 -91 
Q 1019 -91 701 211 
Q 384 513 384 1019 
Q 384 1609 779 1909 
Q 1175 2209 1959 2209 
L 2766 2209 
L 2766 2266 
Q 2766 2663 2505 2880 
Q 2244 3097 1772 3097 
Q 1472 3097 1187 3025 
Q 903 2953 641 2809 
L 641 3341 
Q 956 3463 1253 3523 
Q 1550 3584 1831 3584 
Q 2591 3584 2966 3190 
Q 3341 2797 3341 1997 
z
" id="DejaVuSans-61" transform="scale(0.015625)"/>
       <path d="M 2631 2963 
Q 2534 3019 2420 3045 
Q 2306 3072 2169 3072 
Q 1681 3072 1420 2755 
Q 1159 2438 1159 1844 
L 1159 0 
L 581 0 
L 581 3500 
L 1159 3500 
L 1159 2956 
Q 1341 3275 1631 3429 
Q 1922 3584 2338 3584 
Q 2397 3584 2469 3576 
Q 2541 3569 2628 3553 
L 2631 2963 
z
" id="DejaVuSans-72" transform="scale(0.015625)"/>
       <path d="M 794 531 
L 1825 531 
L 1825 4091 
L 703 3866 
L 703 4441 
L 1819 4666 
L 2450 4666 
L 2450 531 
L 3481 531 
L 3481 0 
L 794 0 
L 794 531 
z
" id="DejaVuSans-31" transform="scale(0.015625)"/>
       <path d="M 3263 -1063 
L 3263 -1509 
L -63 -1509 
L -63 -1063 
L 3263 -1063 
z
" id="DejaVuSans-5f" transform="scale(0.015625)"/>
       <path d="M 3513 2113 
L 3513 0 
L 2938 0 
L 2938 2094 
Q 2938 2591 2744 2837 
Q 2550 3084 2163 3084 
Q 1697 3084 1428 2787 
Q 1159 2491 1159 1978 
L 1159 0 
L 581 0 
L 581 3500 
L 1159 3500 
L 1159 2956 
Q 1366 3272 1645 3428 
Q 1925 3584 2291 3584 
Q 2894 3584 3203 3211 
Q 3513 2838 3513 2113 
z
" id="DejaVuSans-6e" transform="scale(0.015625)"/>
       <path d="M 1959 3097 
Q 1497 3097 1228 2736 
Q 959 2375 959 1747 
Q 959 1119 1226 758 
Q 1494 397 1959 397 
Q 2419 397 2687 759 
Q 2956 1122 2956 1747 
Q 2956 2369 2687 2733 
Q 2419 3097 1959 3097 
z
M 1959 3584 
Q 2709 3584 3137 3096 
Q 3566 2609 3566 1747 
Q 3566 888 3137 398 
Q 2709 -91 1959 -91 
Q 1206 -91 779 398 
Q 353 888 353 1747 
Q 353 2609 779 3096 
Q 1206 3584 1959 3584 
z
" id="DejaVuSans-6f" transform="scale(0.015625)"/>
       <path d="M 3122 3366 
L 3122 2828 
Q 2878 2963 2633 3030 
Q 2388 3097 2138 3097 
Q 1578 3097 1268 2742 
Q 959 2388 959 1747 
Q 959 1106 1268 751 
Q 1578 397 2138 397 
Q 2388 397 2633 464 
Q 2878 531 3122 666 
L 3122 134 
Q 2881 22 2623 -34 
Q 2366 -91 2075 -91 
Q 1284 -91 818 406 
Q 353 903 353 1747 
Q 353 2603 823 3093 
Q 1294 3584 2113 3584 
Q 2378 3584 2631 3529 
Q 2884 3475 3122 3366 
z
" id="DejaVuSans-63" transform="scale(0.015625)"/>
       <path d="M 3328 2828 
Q 3544 3216 3844 3400 
Q 4144 3584 4550 3584 
Q 5097 3584 5394 3201 
Q 5691 2819 5691 2113 
L 5691 0 
L 5113 0 
L 5113 2094 
Q 5113 2597 4934 2840 
Q 4756 3084 4391 3084 
Q 3944 3084 3684 2787 
Q 3425 2491 3425 1978 
L 3425 0 
L 2847 0 
L 2847 2094 
Q 2847 2600 2669 2842 
Q 2491 3084 2119 3084 
Q 1678 3084 1418 2786 
Q 1159 2488 1159 1978 
L 1159 0 
L 581 0 
L 581 3500 
L 1159 3500 
L 1159 2956 
Q 1356 3278 1631 3431 
Q 1906 3584 2284 3584 
Q 2666 3584 2933 3390 
Q 3200 3197 3328 2828 
z
" id="DejaVuSans-6d" transform="scale(0.015625)"/>
      </defs>
      <use xlink:href="#DejaVuSans-79"/>
      <use x="59.179688" xlink:href="#DejaVuSans-65"/>
      <use x="120.703125" xlink:href="#DejaVuSans-61"/>
      <use x="181.982422" xlink:href="#DejaVuSans-72"/>
      <use x="223.095703" xlink:href="#DejaVuSans-31"/>
      <use x="286.71875" xlink:href="#DejaVuSans-5f"/>
      <use x="336.71875" xlink:href="#DejaVuSans-6e"/>
      <use x="400.097656" xlink:href="#DejaVuSans-6f"/>
      <use x="461.279297" xlink:href="#DejaVuSans-72"/>
      <use x="502.392578" xlink:href="#DejaVuSans-61"/>
      <use x="563.671875" xlink:href="#DejaVuSans-63"/>
      <use x="618.652344" xlink:href="#DejaVuSans-65"/>
      <use x="680.175781" xlink:href="#DejaVuSans-5f"/>
      <use x="730.175781" xlink:href="#DejaVuSans-6d"/>
      <use x="827.587891" xlink:href="#DejaVuSans-65"/>
      <use x="889.111328" xlink:href="#DejaVuSans-61"/>
      <use x="950.390625" xlink:href="#DejaVuSans-6e"/>
     </g>
    </g>
   </g>
   <g id="text_2">
    <g clip-path="url(#pec36ba7e9a)">
     <!-- year2_reduction_40_ge -->
     <g transform="translate(292.503401 65.350457)scale(0.03 -0.03)">
      <defs>
       <path d="M 1228 531 
L 3431 531 
L 3431 0 
L 469 0 
L 469 531 
Q 828 903 1448 1529 
Q 2069 2156 2228 2338 
Q 2531 2678 2651 2914 
Q 2772 3150 2772 3378 
Q 2772 3750 2511 3984 
Q 2250 4219 1831 4219 
Q 1534 4219 1204 4116 
Q 875 4013 500 3803 
L 500 4441 
Q 881 4594 1212 4672 
Q 1544 4750 1819 4750 
Q 2544 4750 2975 4387 
Q 3406 4025 3406 3419 
Q 3406 3131 3298 2873 
Q 3191 2616 2906 2266 
Q 2828 2175 2409 1742 
Q 1991 1309 1228 531 
z
" id="DejaVuSans-32" transform="scale(0.015625)"/>
       <path d="M 2906 2969 
L 2906 4863 
L 3481 4863 
L 3481 0 
L 2906 0 
L 2906 525 
Q 2725 213 2448 61 
Q 2172 -91 1784 -91 
Q 1150 -91 751 415 
Q 353 922 353 1747 
Q 353 2572 751 3078 
Q 1150 3584 1784 3584 
Q 2172 3584 2448 3432 
Q 2725 3281 2906 2969 
z
M 947 1747 
Q 947 1113 1208 752 
Q 1469 391 1925 391 
Q 2381 391 2643 752 
Q 2906 1113 2906 1747 
Q 2906 2381 2643 2742 
Q 2381 3103 1925 3103 
Q 1469 3103 1208 2742 
Q 947 2381 947 1747 
z
" id="DejaVuSans-64" transform="scale(0.015625)"/>
       <path d="M 544 1381 
L 544 3500 
L 1119 3500 
L 1119 1403 
Q 1119 906 1312 657 
Q 1506 409 1894 409 
Q 2359 409 2629 706 
Q 2900 1003 2900 1516 
L 2900 3500 
L 3475 3500 
L 3475 0 
L 2900 0 
L 2900 538 
Q 2691 219 2414 64 
Q 2138 -91 1772 -91 
Q 1169 -91 856 284 
Q 544 659 544 1381 
z
M 1991 3584 
L 1991 3584 
z
" id="DejaVuSans-75" transform="scale(0.015625)"/>
       <path d="M 1172 4494 
L 1172 3500 
L 2356 3500 
L 2356 3053 
L 1172 3053 
L 1172 1153 
Q 1172 725 1289 603 
Q 1406 481 1766 481 
L 2356 481 
L 2356 0 
L 1766 0 
Q 1100 0 847 248 
Q 594 497 594 1153 
L 594 3053 
L 172 3053 
L 172 3500 
L 594 3500 
L 594 4494 
L 1172 4494 
z
" id="DejaVuSans-74" transform="scale(0.015625)"/>
       <path d="M 603 3500 
L 1178 3500 
L 1178 0 
L 603 0 
L 603 3500 
z
M 603 4863 
L 1178 4863 
L 1178 4134 
L 603 4134 
L 603 4863 
z
" id="DejaVuSans-69" transform="scale(0.015625)"/>
       <path d="M 2419 4116 
L 825 1625 
L 2419 1625 
L 2419 4116 
z
M 2253 4666 
L 3047 4666 
L 3047 1625 
L 3713 1625 
L 3713 1100 
L 3047 1100 
L 3047 0 
L 2419 0 
L 2419 1100 
L 313 1100 
L 313 1709 
L 2253 4666 
z
" id="DejaVuSans-34" transform="scale(0.015625)"/>
       <path d="M 2034 4250 
Q 1547 4250 1301 3770 
Q 1056 3291 1056 2328 
Q 1056 1369 1301 889 
Q 1547 409 2034 409 
Q 2525 409 2770 889 
Q 3016 1369 3016 2328 
Q 3016 3291 2770 3770 
Q 2525 4250 2034 4250 
z
M 2034 4750 
Q 2819 4750 3233 4129 
Q 3647 3509 3647 2328 
Q 3647 1150 3233 529 
Q 2819 -91 2034 -91 
Q 1250 -91 836 529 
Q 422 1150 422 2328 
Q 422 3509 836 4129 
Q 1250 4750 2034 4750 
z
" id="DejaVuSans-30" transform="scale(0.015625)"/>
       <path d="M 2906 1791 
Q 2906 2416 2648 2759 
Q 2391 3103 1925 3103 
Q 1463 3103 1205 2759 
Q 947 2416 947 1791 
Q 947 1169 1205 825 
Q 1463 481 1925 481 
Q 2391 481 2648 825 
Q 2906 1169 2906 1791 
z
M 3481 434 
Q 3481 -459 3084 -895 
Q 2688 -1331 1869 -1331 
Q 1566 -1331 1297 -1286 
Q 1028 -1241 775 -1147 
L 775 -588 
Q 1028 -725 1275 -790 
Q 1522 -856 1778 -856 
Q 2344 -856 2625 -561 
Q 2906 -266 2906 331 
L 2906 616 
Q 2728 306 2450 153 
Q 2172 0 1784 0 
Q 1141 0 747 490 
Q 353 981 353 1791 
Q 353 2603 747 3093 
Q 1141 3584 1784 3584 
Q 2172 3584 2450 3431 
Q 2728 3278 2906 2969 
L 2906 3500 
L 3481 3500 
L 3481 434 
z
" id="DejaVuSans-67" transform="scale(0.015625)"/>
      </defs>
      <use xlink:href="#DejaVuSans-79"/>
      <use x="59.179688" xlink:href="#DejaVuSans-65"/>
      <use x="120.703125" xlink:href="#DejaVuSans-61"/>
      <use x="181.982422" xlink:href="#DejaVuSans-72"/>
      <use x="223.095703" xlink:href="#DejaVuSans-32"/>
      <use x="286.71875" xlink:href="#DejaVuSans-5f"/>
      <use x="336.71875" xlink:href="#DejaVuSans-72"/>
      <use x="375.582031" xlink:href="#DejaVuSans-65"/>
      <use x="437.105469" xlink:href="#DejaVuSans-64"/>
      <use x="500.582031" xlink:href="#DejaVuSans-75"/>
      <use x="563.960938" xlink:href="#DejaVuSans-63"/>
      <use x="618.941406" xlink:href="#DejaVuSans-74"/>
      <use x="658.150391" xlink:href="#DejaVuSans-69"/>
      <use x="685.933594" xlink:href="#DejaVuSans-6f"/>
      <use x="747.115234" xlink:href="#DejaVuSans-6e"/>
      <use x="810.494141" xlink:href="#DejaVuSans-5f"/>
      <use x="860.494141" xlink:href="#DejaVuSans-34"/>
      <use x="924.117188" xlink:href="#DejaVuSans-30"/>
      <use x="987.740234" xlink:href="#DejaVuSans-5f"/>
      <use x="1037.740234" xlink:href="#DejaVuSans-67"/>
      <use x="1101.216797" xlink:href="#DejaVuSans-65"/>
     </g>
    </g>
   </g>
   <g id="text_3">
    <g clip-path="url(#pec36ba7e9a)">
     <!-- year1_hba1c_mean -->
     <g transform="translate(147.718695 65.350465)scale(0.03 -0.03)">
      <defs>
       <path d="M 3513 2113 
L 3513 0 
L 2938 0 
L 2938 2094 
Q 2938 2591 2744 2837 
Q 2550 3084 2163 3084 
Q 1697 3084 1428 2787 
Q 1159 2491 1159 1978 
L 1159 0 
L 581 0 
L 581 4863 
L 1159 4863 
L 1159 2956 
Q 1366 3272 1645 3428 
Q 1925 3584 2291 3584 
Q 2894 3584 3203 3211 
Q 3513 2838 3513 2113 
z
" id="DejaVuSans-68" transform="scale(0.015625)"/>
       <path d="M 3116 1747 
Q 3116 2381 2855 2742 
Q 2594 3103 2138 3103 
Q 1681 3103 1420 2742 
Q 1159 2381 1159 1747 
Q 1159 1113 1420 752 
Q 1681 391 2138 391 
Q 2594 391 2855 752 
Q 3116 1113 3116 1747 
z
M 1159 2969 
Q 1341 3281 1617 3432 
Q 1894 3584 2278 3584 
Q 2916 3584 3314 3078 
Q 3713 2572 3713 1747 
Q 3713 922 3314 415 
Q 2916 -91 2278 -91 
Q 1894 -91 1617 61 
Q 1341 213 1159 525 
L 1159 0 
L 581 0 
L 581 4863 
L 1159 4863 
L 1159 2969 
z
" id="DejaVuSans-62" transform="scale(0.015625)"/>
      </defs>
      <use xlink:href="#DejaVuSans-79"/>
      <use x="59.179688" xlink:href="#DejaVuSans-65"/>
      <use x="120.703125" xlink:href="#DejaVuSans-61"/>
      <use x="181.982422" xlink:href="#DejaVuSans-72"/>
      <use x="223.095703" xlink:href="#DejaVuSans-31"/>
      <use x="286.71875" xlink:href="#DejaVuSans-5f"/>
      <use x="336.71875" xlink:href="#DejaVuSans-68"/>
      <use x="400.097656" xlink:href="#DejaVuSans-62"/>
      <use x="463.574219" xlink:href="#DejaVuSans-61"/>
      <use x="524.853516" xlink:href="#DejaVuSans-31"/>
      <use x="588.476562" xlink:href="#DejaVuSans-63"/>
      <use x="643.457031" xlink:href="#DejaVuSans-5f"/>
      <use x="693.457031" xlink:href="#DejaVuSans-6d"/>
      <use x="790.869141" xlink:href="#DejaVuSans-65"/>
      <use x="852.392578" xlink:href="#DejaVuSans-61"/>
      <use x="913.671875" xlink:href="#DejaVuSans-6e"/>
     </g>
    </g>
   </g>
   <g id="text_4">
    <g clip-path="url(#pec36ba7e9a)">
     <!-- year1_aceiarb_coverage -->
     <g transform="translate(70.252486 175.314105)scale(0.03 -0.03)">
      <defs>
       <path d="M 191 3500 
L 800 3500 
L 1894 563 
L 2988 3500 
L 3597 3500 
L 2284 0 
L 1503 0 
L 191 3500 
z
" id="DejaVuSans-76" transform="scale(0.015625)"/>
      </defs>
      <use xlink:href="#DejaVuSans-79"/>
      <use x="59.179688" xlink:href="#DejaVuSans-65"/>
      <use x="120.703125" xlink:href="#DejaVuSans-61"/>
      <use x="181.982422" xlink:href="#DejaVuSans-72"/>
      <use x="223.095703" xlink:href="#DejaVuSans-31"/>
      <use x="286.71875" xlink:href="#DejaVuSans-5f"/>
      <use x="336.71875" xlink:href="#DejaVuSans-61"/>
      <use x="397.998047" xlink:href="#DejaVuSans-63"/>
      <use x="452.978516" xlink:href="#DejaVuSans-65"/>
      <use x="514.501953" xlink:href="#DejaVuSans-69"/>
      <use x="542.285156" xlink:href="#DejaVuSans-61"/>
      <use x="603.564453" xlink:href="#DejaVuSans-72"/>
      <use x="644.677734" xlink:href="#DejaVuSans-62"/>
      <use x="708.154297" xlink:href="#DejaVuSans-5f"/>
      <use x="758.154297" xlink:href="#DejaVuSans-63"/>
      <use x="813.134766" xlink:href="#DejaVuSans-6f"/>
      <use x="874.316406" xlink:href="#DejaVuSans-76"/>
      <use x="933.496094" xlink:href="#DejaVuSans-65"/>
      <use x="995.019531" xlink:href="#DejaVuSans-72"/>
      <use x="1036.132812" xlink:href="#DejaVuSans-61"/>
      <use x="1097.412109" xlink:href="#DejaVuSans-67"/>
      <use x="1160.888672" xlink:href="#DejaVuSans-65"/>
     </g>
    </g>
   </g>
   <g id="text_5">
    <g clip-path="url(#pec36ba7e9a)">
     <!-- year1_ppi_coverage -->
     <g transform="translate(147.28817 285.27773)scale(0.03 -0.03)">
      <defs>
       <path d="M 1159 525 
L 1159 -1331 
L 581 -1331 
L 581 3500 
L 1159 3500 
L 1159 2969 
Q 1341 3281 1617 3432 
Q 1894 3584 2278 3584 
Q 2916 3584 3314 3078 
Q 3713 2572 3713 1747 
Q 3713 922 3314 415 
Q 2916 -91 2278 -91 
Q 1894 -91 1617 61 
Q 1341 213 1159 525 
z
M 3116 1747 
Q 3116 2381 2855 2742 
Q 2594 3103 2138 3103 
Q 1681 3103 1420 2742 
Q 1159 2381 1159 1747 
Q 1159 1113 1420 752 
Q 1681 391 2138 391 
Q 2594 391 2855 752 
Q 3116 1113 3116 1747 
z
" id="DejaVuSans-70" transform="scale(0.015625)"/>
      </defs>
      <use xlink:href="#DejaVuSans-79"/>
      <use x="59.179688" xlink:href="#DejaVuSans-65"/>
      <use x="120.703125" xlink:href="#DejaVuSans-61"/>
      <use x="181.982422" xlink:href="#DejaVuSans-72"/>
      <use x="223.095703" xlink:href="#DejaVuSans-31"/>
      <use x="286.71875" xlink:href="#DejaVuSans-5f"/>
      <use x="336.71875" xlink:href="#DejaVuSans-70"/>
      <use x="400.195312" xlink:href="#DejaVuSans-70"/>
      <use x="463.671875" xlink:href="#DejaVuSans-69"/>
      <use x="491.455078" xlink:href="#DejaVuSans-5f"/>
      <use x="541.455078" xlink:href="#DejaVuSans-63"/>
      <use x="596.435547" xlink:href="#DejaVuSans-6f"/>
      <use x="657.617188" xlink:href="#DejaVuSans-76"/>
      <use x="716.796875" xlink:href="#DejaVuSans-65"/>
      <use x="778.320312" xlink:href="#DejaVuSans-72"/>
      <use x="819.433594" xlink:href="#DejaVuSans-61"/>
      <use x="880.712891" xlink:href="#DejaVuSans-67"/>
      <use x="944.189453" xlink:href="#DejaVuSans-65"/>
     </g>
    </g>
   </g>
   <g id="text_6">
    <g clip-path="url(#pec36ba7e9a)">
     <!-- year1_nsaid_coverage -->
     <g transform="translate(293.159408 285.27773)scale(0.03 -0.03)">
      <defs>
       <path d="M 2834 3397 
L 2834 2853 
Q 2591 2978 2328 3040 
Q 2066 3103 1784 3103 
Q 1356 3103 1142 2972 
Q 928 2841 928 2578 
Q 928 2378 1081 2264 
Q 1234 2150 1697 2047 
L 1894 2003 
Q 2506 1872 2764 1633 
Q 3022 1394 3022 966 
Q 3022 478 2636 193 
Q 2250 -91 1575 -91 
Q 1294 -91 989 -36 
Q 684 19 347 128 
L 347 722 
Q 666 556 975 473 
Q 1284 391 1588 391 
Q 1994 391 2212 530 
Q 2431 669 2431 922 
Q 2431 1156 2273 1281 
Q 2116 1406 1581 1522 
L 1381 1569 
Q 847 1681 609 1914 
Q 372 2147 372 2553 
Q 372 3047 722 3315 
Q 1072 3584 1716 3584 
Q 2034 3584 2315 3537 
Q 2597 3491 2834 3397 
z
" id="DejaVuSans-73" transform="scale(0.015625)"/>
      </defs>
      <use xlink:href="#DejaVuSans-79"/>
      <use x="59.179688" xlink:href="#DejaVuSans-65"/>
      <use x="120.703125" xlink:href="#DejaVuSans-61"/>
      <use x="181.982422" xlink:href="#DejaVuSans-72"/>
      <use x="223.095703" xlink:href="#DejaVuSans-31"/>
      <use x="286.71875" xlink:href="#DejaVuSans-5f"/>
      <use x="336.71875" xlink:href="#DejaVuSans-6e"/>
      <use x="400.097656" xlink:href="#DejaVuSans-73"/>
      <use x="452.197266" xlink:href="#DejaVuSans-61"/>
      <use x="513.476562" xlink:href="#DejaVuSans-69"/>
      <use x="541.259766" xlink:href="#DejaVuSans-64"/>
      <use x="604.736328" xlink:href="#DejaVuSans-5f"/>
      <use x="654.736328" xlink:href="#DejaVuSans-63"/>
      <use x="709.716797" xlink:href="#DejaVuSans-6f"/>
      <use x="770.898438" xlink:href="#DejaVuSans-76"/>
      <use x="830.078125" xlink:href="#DejaVuSans-65"/>
      <use x="891.601562" xlink:href="#DejaVuSans-72"/>
      <use x="932.714844" xlink:href="#DejaVuSans-61"/>
      <use x="993.994141" xlink:href="#DejaVuSans-67"/>
      <use x="1057.470703" xlink:href="#DejaVuSans-65"/>
     </g>
    </g>
   </g>
  </g>
 </g>
 <defs>
  <clipPath id="pec36ba7e9a">
   <rect height="266.112" width="357.12" x="57.6" y="41.472"/>
  </clipPath>
 </defs>
</svg>
